<svg width="256" height="237" viewBox="0 0 256 237" fill="none" xmlns="http://www.w3.org/2000/svg">
<rect width="256" height="237.001" rx="22.1496" fill="#016146"/>
<path fill-rule="evenodd" clip-rule="evenodd" d="M84.9636 22.8084C85.4634 23.1762 87.2547 24.5765 88.9442 25.9202C90.6337 27.2638 92.4489 28.7036 92.9781 29.1196C94.526 30.3365 94.5233 30.3301 94.6697 33.1823C94.8622 36.9324 94.8628 41.0475 94.671 41.4059C94.039 42.5869 91.3268 42.4062 91.0731 41.1662C91.0207 40.9102 90.9348 38.9515 90.8823 36.8138C90.8297 34.6759 90.7537 32.7542 90.7134 32.5434C90.6604 32.2658 90.2217 31.8313 89.1267 30.9717C88.2944 30.3182 86.7393 29.0902 85.6713 28.2427C84.1295 27.0195 83.6621 26.7183 83.4032 26.7821C82.9901 26.8838 80.2439 28.2098 79.3001 28.7632C77.629 29.7431 73.3586 31.8553 73.0484 31.8553C72.8628 31.8553 72.6079 31.775 72.4819 31.6767C72.1471 31.4158 71.0847 29.708 71.0847 29.431C71.0847 29.1795 71.5806 28.6709 72.3186 28.1654C72.9427 27.7379 77.3411 25.3943 80.5859 23.7602C82.079 23.0083 83.3617 22.3362 83.4363 22.2665C83.7016 22.0187 84.0665 22.1483 84.9636 22.8084ZM61.4999 27.3388C62.0306 27.6052 62.9935 28.1545 63.6399 28.5596C64.2863 28.9646 66.4027 30.2169 68.3428 31.3423C70.283 32.4679 72.7327 33.9117 73.7864 34.5508C74.8401 35.19 75.7236 35.7129 75.7499 35.7129C75.7762 35.7129 76.8107 36.3127 78.0489 37.0458C81.0859 38.8437 83.436 40.2198 86.0866 41.7517C87.3047 42.4556 89.0727 43.4974 90.0157 44.0666C90.9587 44.6358 93.1126 45.9059 94.8021 46.8894C100.307 50.0933 103.867 52.2435 104.241 52.5898C104.59 52.9138 104.603 52.9774 104.511 53.9771C104.393 55.2617 104.162 55.5436 103.127 55.6662C102.426 55.7492 102.325 55.7142 100.777 54.8505C98.9009 53.8035 93.4124 50.6244 92.1589 49.8582C91.6874 49.5701 90.305 48.7697 89.087 48.0797C87.869 47.3896 86.326 46.4883 85.658 46.0767C84.9901 45.6651 83.1898 44.5986 81.6575 43.7067C80.1252 42.8148 78.7107 41.9776 78.5142 41.8461C78.3178 41.7148 76.7747 40.806 75.0852 39.8266C73.3957 38.8472 69.8917 36.8038 67.2985 35.2857C58.5265 30.1503 58.7418 30.2982 58.6185 29.3245C58.5137 28.4957 58.8204 27.9305 59.6811 27.3666C60.0987 27.0929 60.4618 26.8658 60.4878 26.8619C60.5138 26.8579 60.9693 27.0725 61.4999 27.3388ZM69.2725 39.7309C69.4441 39.819 69.7613 40.0562 69.9774 40.2576C70.4874 40.7333 70.4841 41.1178 69.9479 43.7084C69.3293 46.6963 69.1812 48.2821 69.2681 50.9873C69.3599 53.8528 69.6527 55.1866 70.6194 57.1442C71.7081 59.3487 73.3782 60.8083 75.371 61.2968C76.4838 61.5695 78.2885 61.5437 79.1572 61.2425C81.4448 60.4492 83.4074 57.6948 85.0005 53.042C85.356 52.0039 85.8148 50.9006 86.0199 50.5904C86.7182 49.5353 87.7903 49.4614 88.8259 50.3968C89.3949 50.911 89.4034 50.9327 89.3169 51.6678C89.1919 52.7311 88.3575 55.3919 87.6107 57.1085C86.6471 59.323 85.1815 61.5418 83.8958 62.7321C83.1081 63.4612 81.1917 64.6531 80.2288 65.0127C79.3878 65.3269 79.084 65.3596 77.0141 65.3596C74.5883 65.3596 74.1805 65.2746 72.4712 64.413C70.7534 63.5471 68.3918 61.3129 67.3709 59.5879C65.1817 55.8882 64.5643 50.4988 65.6699 44.7357C65.9738 43.1517 66.691 40.8011 66.9855 40.4245C67.5878 39.654 68.553 39.3612 69.2725 39.7309ZM61.6952 59.0514C62.3077 59.308 64.0021 60.6657 66.4413 62.8543C67.5414 63.8414 70.0257 65.982 71.962 67.611C74.2308 69.5198 75.5131 70.6954 75.5689 70.9172C75.6164 71.1065 75.8458 73.3089 76.0785 75.8115C76.5153 80.5071 77.0326 85.2004 77.525 88.9341C77.6803 90.1128 77.9302 92.2975 78.0802 93.789L78.3529 96.5009L79.3349 97.4323C79.8751 97.9446 81.5991 99.5787 83.1661 101.063C87.2374 104.921 92.8884 110.555 93.3389 111.205L93.7226 111.758L93.3693 112.38C92.9767 113.071 91.3192 114.904 88.3041 117.982C86.2348 120.095 85.5097 120.68 85.1962 120.493C84.7895 120.249 81.2256 117.531 80.2149 116.694C79.6178 116.199 77.6568 114.608 75.8572 113.156C74.0574 111.706 71.8134 109.869 70.8704 109.076C68.2219 106.847 64.0441 103.534 63.5437 103.267C63.0385 102.997 63.0325 102.977 62.7968 100.793C62.7035 99.9283 62.4705 98.0992 62.2789 96.7281C61.3087 89.7852 60.6375 84.7688 60.299 81.9332C60.0927 80.2044 59.8311 78.0965 59.7178 77.2491C59.6045 76.4016 59.5118 75.3554 59.5118 74.9242C59.5118 74.1457 59.5167 74.1372 60.1827 73.7147C61.18 73.0822 62.5638 73.156 62.9415 73.862C63.3367 74.6005 64.0947 79.7664 65.7186 92.7917C66.2281 96.8779 66.7127 100.414 66.7955 100.65C66.8836 100.901 67.1674 101.208 67.4795 101.391C67.9609 101.674 68.916 102.433 73.0135 105.79C76.0616 108.287 80.6474 112.081 81.3718 112.705C82.2054 113.424 84.6087 115.318 84.9062 115.492C85.0898 115.599 87.8013 113.009 88.2922 112.258C88.616 111.762 88.7553 111.94 85.8072 109.08C84.5114 107.822 82.0671 105.438 80.3755 103.781C78.6838 102.124 76.7077 100.204 75.9839 99.5143C75.1944 98.7618 74.611 98.0809 74.5253 97.8119C74.3293 97.1973 73.7072 92.0747 73.4384 88.8626C72.9212 82.6815 71.9878 73.6301 71.7861 72.8397C71.6835 72.4376 71.4172 72.1285 70.6189 71.4847C70.05 71.0259 68.2379 69.4921 66.5921 68.0765C60.5051 62.8403 60.8958 63.145 60.2685 63.145C59.0573 63.145 55.6899 64.2705 53.8682 65.2842C52.5332 66.027 50.4791 67.5192 49.0729 68.7676C44.3597 72.9521 39.4252 80.8006 35.765 89.9342C33.3983 95.8398 31.3133 102.163 29.8591 107.845C29.3433 109.86 28.7008 112.312 28.4312 113.294C27.9303 115.12 27.0806 119.324 26.8016 121.357C26.6949 122.135 26.6922 122.537 26.793 122.638C26.8817 122.727 28.5418 122.827 30.9744 122.89C33.1933 122.947 36.1659 123.062 37.5804 123.146C40.7761 123.334 51.9365 123.825 55.5827 123.937C61.5361 124.12 65.6199 124.315 66.3058 124.449C67.1994 124.624 67.5128 125.064 67.5128 126.147C67.5128 127.663 66.8765 128.154 64.9099 128.153C64.2591 128.152 59.5797 127.963 54.5112 127.732C45.8673 127.338 42.7789 127.229 29.8651 126.864C22.9621 126.669 23.2115 126.7 22.6845 125.962C22.4509 125.635 22.218 125.233 22.167 125.07C22.039 124.659 22.6742 121.015 23.2871 118.644C23.5662 117.565 24.0194 115.486 24.2943 114.024C25.0036 110.251 25.1472 109.642 25.9328 107.079C26.3181 105.822 26.9893 103.461 27.4242 101.833C27.8592 100.204 28.3709 98.5004 28.5614 98.0464C28.7517 97.5923 29.244 96.2243 29.6551 95.0063C30.5881 92.2428 33.0298 86.285 34.5447 83.0762C37.9883 75.7819 42.3913 69.5266 46.8393 65.6092C48.8697 63.8211 49.6577 63.2346 51.4876 62.1502C53.6991 60.8394 55.7203 60.1023 59.3276 59.2912C60.3326 59.0652 61.173 58.8755 61.1952 58.8696C61.2173 58.8636 61.4423 58.9455 61.6952 59.0514ZM204.212 80.3738C204.987 80.8809 207.459 84.7207 209.006 87.8192C210.101 90.0116 211.199 92.6941 211.806 94.6574C213.488 100.095 213.289 105.431 211.246 109.61C209.788 112.593 207.763 114.867 204.888 116.748C202.916 118.038 201.928 118.491 201.327 118.378C200.092 118.146 198.467 116.23 196.952 113.216C196.213 111.746 195.993 111.113 195.445 108.877C193.83 102.283 193.768 99.9921 195.043 94.2205C195.725 91.1366 196.335 89.3695 197.53 87.014C198.677 84.7542 199.523 83.4128 200.808 81.82C201.989 80.3552 202.558 79.9598 203.316 80.0749C203.63 80.1226 204.033 80.2571 204.212 80.3738ZM202.295 86.4507C201.602 87.5223 200.295 90.1852 199.731 91.6741C199.273 92.8846 198.73 95.1197 198.543 96.5649C198.344 98.099 198.342 102.636 198.539 104.661C198.814 107.489 199.409 109.336 201.218 112.973C201.501 113.543 201.792 114.009 201.864 114.009C202.179 114.009 204.001 112.553 205.251 111.302C206.839 109.713 207.721 108.314 208.381 106.339C209.201 103.889 209.28 100.88 208.603 97.9611C207.963 95.2016 206.638 91.6707 205.323 89.2198C204.986 88.5912 204.399 87.4822 204.02 86.7552C203.64 86.0283 203.245 85.4336 203.142 85.4336C203.038 85.4336 202.657 85.8914 202.295 86.4507ZM51.6976 87.4234C52.315 87.6582 52.6332 88.4347 53.232 91.1685C53.5482 92.6113 54.0287 94.6598 54.3001 95.7206C54.5714 96.7815 55.242 99.9319 55.79 102.722C56.3383 105.511 56.8695 108.029 56.9705 108.316C57.1776 108.904 57.6221 109.258 61.012 111.528C65.588 114.593 71.9897 118.897 74.5214 120.611C76.9829 122.277 78.452 123.153 78.7856 123.153C78.8616 123.153 78.9639 123.026 79.0132 122.871C79.1189 122.537 80.1563 120.93 80.5541 120.484C80.7065 120.312 81.0822 120.13 81.3886 120.078C82.4388 119.901 83.6578 120.923 83.6578 121.981C83.6578 122.627 83.3955 123.247 82.437 124.867C81.9488 125.692 81.3326 126.785 81.0677 127.296C80.6629 128.076 80.5198 128.232 80.1723 128.272C79.1022 128.394 76.9788 127.134 68.6586 121.442C66.9676 120.285 62.9198 117.557 59.6635 115.381C56.4071 113.204 53.6638 111.311 53.5672 111.173C53.4704 111.035 53.128 109.478 52.8059 107.715C52.2153 104.478 52.1314 104.096 51.4465 101.507C51.0344 99.9505 48.939 89.6041 48.939 89.1267C48.939 88.7132 49.58 87.9911 50.2775 87.6189C50.9387 87.2661 51.1922 87.2313 51.6976 87.4234ZM174.669 101.216C177.188 101.485 178.686 101.853 180.805 102.724C184.603 104.285 187.638 106.392 190.948 109.765C193.982 112.856 196.807 116.81 198.959 120.974L199.715 122.438H201.118C204.407 122.438 208.165 123.737 210.482 125.675C213.454 128.16 215.303 131.549 216.176 136.113C216.287 136.694 216.422 138.149 216.475 139.345C216.583 141.754 216.492 142.153 215.725 142.656C214.981 143.144 213.201 142.833 212.859 142.155C212.756 141.95 212.678 141.269 212.676 140.557C212.674 138.856 212.058 135.401 211.489 133.886C210.962 132.486 210.223 131.124 209.427 130.086C208.364 128.7 206.146 127.229 204.602 126.887C203.31 126.6 201.008 126.443 199.427 126.533C198.374 126.593 197.774 126.569 197.567 126.459C197.387 126.362 196.827 125.436 196.194 124.189C193.027 117.94 189.562 113.383 185.314 109.881C182.533 107.589 179.59 106.176 176.024 105.421C174.733 105.147 174.025 105.089 172.026 105.089C168.666 105.09 166.354 105.506 162.954 106.722C162.05 107.045 161.182 107.348 161.025 107.395C160.588 107.527 157.396 109.196 156.14 109.95C150.421 113.382 146.174 117.009 139.222 124.396C137.546 126.177 137.309 126.31 136.592 125.867C136.041 125.526 134.95 124.252 134.95 123.948C134.95 123.629 136.135 121.991 137.379 120.592C145.035 111.981 154.361 105.415 163.178 102.429C165.086 101.783 166.481 101.488 168.829 101.232C171.192 100.974 172.373 100.971 174.669 101.216ZM223.671 115.876C227.544 116.187 230.247 117.212 232.299 119.148C233.659 120.432 234.198 121.912 233.623 122.788C233.305 123.275 232.281 124.01 231.922 124.01C231.412 124.01 230.7 123.439 229.986 122.457C229.366 121.604 229.146 121.423 228.087 120.894C226.075 119.886 225.53 119.795 221.533 119.796C219.445 119.796 217.427 119.874 216.532 119.989C215.04 120.18 214.339 120.317 209.193 121.428C207.71 121.748 206.124 122.01 205.667 122.01C204.942 122.01 204.8 121.962 204.543 121.636C204.071 121.036 203.761 119.873 203.946 119.395C204.476 118.022 212.336 116.29 220.175 115.818C220.568 115.794 221.086 115.763 221.325 115.749C221.565 115.735 222.621 115.792 223.671 115.876ZM93.7305 121.727C95.4593 122.048 97.2349 122.371 97.6766 122.446C98.1181 122.52 99.2111 122.749 100.105 122.953C102.37 123.471 103.957 123.808 106.446 124.299C107.625 124.532 109.297 124.884 110.161 125.081C113.306 125.799 114.914 126.147 116.805 126.516C118.995 126.945 126.013 128.381 126.878 128.578C127.192 128.65 127.642 128.751 127.878 128.802C128.706 128.983 135.223 130.317 140.808 131.449C143.912 132.078 147.77 132.885 149.381 133.243C150.991 133.6 154.013 134.239 156.096 134.663C158.178 135.086 160.589 135.596 161.453 135.795C162.318 135.994 164.343 136.414 165.954 136.73C167.565 137.045 169.301 137.397 169.812 137.512C170.322 137.626 172.444 138.077 174.527 138.512C176.609 138.948 179.181 139.492 180.242 139.72C182.644 140.237 188.22 141.406 191.529 142.085C192.904 142.368 195.797 142.978 197.958 143.441C200.119 143.904 202.723 144.453 203.745 144.66C206.319 145.182 208.011 145.537 209.102 145.785C211.95 146.432 214.182 146.904 216.603 147.372C218.987 147.833 221.131 148.32 224.192 149.098C225.347 149.392 226.476 149.924 226.656 150.261C226.833 150.592 226.642 151.545 226.283 152.124C225.941 152.676 225.139 153.643 223.533 155.439C222.786 156.274 220.504 158.846 218.461 161.156C216.418 163.465 213.203 167.096 211.317 169.226C209.431 171.355 207.471 173.578 206.962 174.164C206.453 174.751 205.424 175.91 204.676 176.74C203.928 177.57 202.737 178.915 202.03 179.728C198.797 183.448 197.598 184.73 197.236 184.856C196.833 184.997 196.877 185.003 190.529 183.946C188.918 183.678 186.475 183.298 185.099 183.101C182.925 182.789 177.366 181.923 171.741 181.02C170.798 180.869 168.547 180.512 166.74 180.228C164.933 179.944 160.914 179.295 157.81 178.786C154.706 178.277 151.074 177.702 149.738 177.508C148.402 177.314 146.377 176.997 145.237 176.804C142.444 176.329 138.137 175.641 136.736 175.444C132.797 174.893 129.148 174.264 128.782 174.075C127.948 173.644 127.708 172.269 128.271 171.154L128.592 170.516L129.878 170.47C131.07 170.428 132.249 170.544 134.021 170.879C136.438 171.336 137.969 171.603 139.736 171.874C140.837 172.043 142.315 172.27 143.023 172.379C143.73 172.487 145.209 172.711 146.309 172.876C148.373 173.185 152.219 173.814 155.096 174.312C156.743 174.597 157.942 174.781 163.382 175.582C164.993 175.819 166.454 176.047 166.628 176.088C167.195 176.222 171.102 176.852 174.098 177.293C177.825 177.842 183.613 178.758 186.742 179.294C188.078 179.523 189.911 179.837 190.814 179.992C192.563 180.293 194.024 180.523 195.147 180.674C195.792 180.761 195.869 180.736 196.342 180.285C196.62 180.02 197.304 179.256 197.863 178.588C198.743 177.536 200.758 175.253 204.245 171.356C204.755 170.785 206.298 169.045 207.673 167.488C209.048 165.932 210.752 164.014 211.459 163.228C213.666 160.775 214.857 159.42 216.037 158.023C216.663 157.281 217.433 156.38 217.748 156.022C219.107 154.48 220.675 152.537 220.675 152.396C220.675 152.354 220.306 152.248 219.854 152.161C218.887 151.974 217.849 151.753 214.746 151.071C213.489 150.795 210.306 150.125 207.674 149.582C203.473 148.715 200.573 148.096 198.387 147.598C198.033 147.518 196.779 147.255 195.601 147.014C190.865 146.047 188.539 145.56 187.314 145.28C186.607 145.119 184.421 144.668 182.456 144.279C180.492 143.89 178.177 143.409 177.313 143.21C176.448 143.011 172.645 142.214 168.861 141.439C165.076 140.664 161.733 139.964 161.431 139.883C161.129 139.801 159.339 139.416 157.453 139.025C155.567 138.635 152.481 137.992 150.595 137.596C143.986 136.208 140.839 135.558 136.022 134.584C133.35 134.043 130.135 133.367 128.878 133.08C127.621 132.793 124.695 132.182 122.377 131.721C120.059 131.26 117.166 130.66 115.948 130.388C114.73 130.115 112.383 129.625 110.733 129.298C109.082 128.971 106.46 128.417 104.905 128.068C101.883 127.388 99.6283 126.931 96.8738 126.437C95.0535 126.111 90.1163 125.012 88.8013 124.641C88.3691 124.519 87.9352 124.315 87.8369 124.187C87.4464 123.68 87.7402 121.918 88.3234 121.269C88.5575 121.008 88.6984 120.985 89.5871 121.059C90.1372 121.106 92.0017 121.406 93.7305 121.727ZM30.1985 131.768C30.3818 131.856 30.6965 132.21 30.8978 132.554C31.3202 133.274 31.3219 133.133 30.8028 140.155C30.6431 142.316 30.3842 146.527 30.2275 149.513C29.6647 160.236 29.0624 169.59 28.6501 174.014C28.191 178.94 27.8619 183.862 27.2259 195.305C27.1452 196.759 27.0148 199.092 26.9362 200.489C26.8576 201.886 26.7933 203.221 26.7933 203.454V203.877H29.0793C30.3366 203.877 31.3653 203.859 31.3653 203.837C31.3653 203.815 31.4606 203.028 31.5771 202.087C31.6934 201.147 31.9168 199.188 32.0734 197.734C32.5219 193.571 33.1994 188.814 33.7881 185.694C33.9398 184.89 34.3293 182.721 34.6537 180.874C35.4183 176.522 37.1698 167.269 37.507 165.801C37.6514 165.172 38.3262 161.904 39.0067 158.537C39.6873 155.17 40.4315 151.538 40.6605 150.464C40.8897 149.391 41.4936 146.456 42.0028 143.941C43.4257 136.914 43.7759 135.718 44.5227 135.335C45.0254 135.077 46.7223 135.101 46.9906 135.369C47.2979 135.677 47.3024 135.698 47.9387 139.869C48.2564 141.952 48.7064 144.62 48.9386 145.799C49.3665 147.969 49.6898 150.085 50.227 154.228C50.5579 156.781 51.2142 160.985 51.6541 163.372C51.9796 165.139 52.3279 167.492 52.8699 171.588C53.3417 175.152 53.7115 177.533 54.2237 180.303C54.7498 183.148 54.9962 184.729 55.4487 188.161C55.857 191.258 56.7276 196.809 57.3872 200.52C57.6247 201.856 57.8537 203.152 57.8963 203.401C57.9707 203.836 58.0045 203.856 58.7784 203.919C59.221 203.955 59.9044 203.977 60.2969 203.967L61.0107 203.949L61.1103 203.092C61.2022 202.302 61.6042 187.338 61.9394 172.231C62.0163 168.773 62.179 161.572 62.3013 156.228C62.4236 150.885 62.5708 143.711 62.6283 140.287C62.7441 133.399 62.7136 133.606 63.6986 133.005C64.3806 132.589 65.5634 132.62 66.0092 133.066C66.7154 133.772 66.7157 133.784 66.4564 146.37C66.2185 157.911 66.0836 163.443 65.8029 173.159C65.7245 175.87 65.5916 182.3 65.5076 187.447C65.3011 200.087 65.1332 206.903 65.0218 207.175C64.9708 207.299 64.5886 207.508 64.1724 207.64C63.5436 207.838 62.7661 207.878 59.5707 207.877C57.3864 207.877 55.4979 207.813 55.1985 207.73C54.7338 207.601 54.6369 207.491 54.3803 206.806C54.073 205.984 53.5336 203.002 53.1528 200.02C52.7445 196.821 52.0906 192.436 51.5866 189.518C51.3152 187.947 50.6717 183.703 50.1565 180.089C49.6412 176.474 49.1913 173.42 49.1566 173.302C48.8716 172.336 48.0072 166.653 47.3635 161.515C46.9722 158.39 46.7054 156.676 46.2964 154.657C46.1054 153.714 45.8459 152.074 45.7197 151.013C45.5936 149.953 45.4446 148.966 45.3884 148.821C45.3213 148.647 45.1255 149.256 44.8141 150.607C44.5542 151.734 44.0954 153.685 43.7945 154.943C43.4936 156.2 42.8871 159.061 42.4469 161.301C40.8018 169.669 40.0566 173.389 39.9193 173.921C39.5965 175.169 36.9392 190.614 36.4488 194.09C35.9772 197.435 35.6516 200.191 35.4404 202.626C35.1408 206.079 34.9551 207.339 34.7079 207.592C34.3851 207.923 23.9198 207.994 23.4236 207.669C23.0391 207.417 22.6555 206.746 22.4978 206.049C22.3569 205.427 22.8152 199.231 23.3664 194.305C23.5759 192.432 24.0684 184.505 24.5824 174.731C25.1019 164.854 25.4931 159.262 26.0069 154.371C26.2738 151.829 26.5717 147.38 26.9299 140.584C27.382 132.003 27.3377 132.323 28.1295 131.914C29.0169 131.455 29.4842 131.422 30.1985 131.768ZM123.783 135.739C124.553 136.008 124.585 136.342 124.395 142.188C124.236 147.06 124.17 148.591 123.799 156.086C123.64 159.291 123.145 166.568 123.021 167.516C122.841 168.896 122.511 174.366 122.311 179.303C122.097 184.581 121.869 189.651 121.739 192.006L121.673 193.207L122.181 192.72C122.461 192.452 123.825 190.981 125.212 189.45C126.6 187.919 128.121 186.245 128.592 185.729C132.483 181.475 133.466 180.384 133.572 180.2C133.766 179.864 135.199 179.288 135.594 179.387C135.931 179.472 136.735 180.338 137.078 180.985C137.406 181.604 136.509 182.833 132.673 187.022C131.17 188.663 129.097 190.99 126.827 193.584C126.171 194.334 124.756 195.888 123.684 197.038C122.612 198.188 121.463 199.425 121.132 199.788C120.287 200.715 119.697 200.975 118.951 200.752C118.632 200.656 118.148 200.382 117.874 200.141C117.406 199.73 117.376 199.652 117.376 198.812C117.376 198.321 117.472 196.576 117.588 194.934C117.784 192.165 118.072 187.31 118.587 178.088C118.701 176.045 118.896 172.091 119.019 169.302C119.237 164.388 119.439 160.044 119.881 150.799C120.17 144.75 120.728 138.131 121.08 136.56C121.151 136.247 121.327 135.901 121.471 135.791C121.789 135.551 123.154 135.52 123.783 135.739ZM208.235 154.366C208.761 154.638 209.388 155.388 209.388 155.745C209.388 156.234 208.893 157.025 207.165 159.3C205.016 162.127 202.82 164.816 201.633 166.072C200.735 167.022 200.682 167.055 200.165 166.971C199.25 166.822 198.387 165.782 198.387 164.828C198.387 164.293 198.686 163.795 199.946 162.23C200.388 161.679 200.938 160.972 201.166 160.658C201.395 160.343 202.068 159.481 202.663 158.741C203.258 158.001 204.088 156.94 204.509 156.383C205.46 155.123 206.089 154.449 206.459 154.294C206.916 154.103 207.796 154.139 208.235 154.366ZM166.49 181.435C170.283 182.524 173.786 184.947 175.943 187.972C178.868 192.074 179.845 196.7 178.824 201.619C177.736 206.863 173.869 211.463 168.722 213.636C166.635 214.517 165.592 214.735 163.025 214.831C160.555 214.923 158.999 214.714 156.887 214.008C151.93 212.351 148.116 208.382 146.321 203.013C145.633 200.957 145.473 199.762 145.564 197.377C145.65 195.139 145.9 194.003 146.82 191.662C148.204 188.143 150.682 185.173 153.815 183.278C154.827 182.666 157.196 181.704 158.551 181.355C160.518 180.848 164.589 180.889 166.49 181.435ZM209.317 184.732C209.365 184.811 209.301 184.875 209.174 184.875C209.047 184.875 208.982 184.811 209.031 184.732C209.08 184.654 209.144 184.589 209.174 184.589C209.204 184.589 209.268 184.654 209.317 184.732ZM159.589 185.216C157.038 185.64 154.135 187.472 152.214 189.872C151.088 191.279 150.471 192.409 150.068 193.805C149.772 194.828 149.738 195.24 149.742 197.734C149.747 200.673 149.881 201.599 150.55 203.306C151.792 206.476 155.028 209.331 158.672 210.471C159.623 210.768 160.019 210.804 162.311 210.805C164.56 210.807 165.022 210.766 165.997 210.484C169.584 209.444 172.582 206.797 174.306 203.148C175.15 201.36 175.312 200.523 175.312 197.948C175.312 195.95 175.27 195.528 174.978 194.597C173.949 191.319 171.478 188.115 168.745 186.513C166.617 185.266 162.662 184.706 159.589 185.216Z" fill="#FAFCFB"/>
</svg>
