<svg width="58" height="53" viewBox="0 0 58 53" fill="none" xmlns="http://www.w3.org/2000/svg">
<path d="M50.7767 16.369C49.6377 17.3647 46.2407 20.382 46.2407 20.382L34.206 9.7345V15.5751H18.459L23.3902 0H38.3675C43.2368 0 47.6966 1.84719 51.1308 4.90638C51.1359 4.90861 51.1383 4.91335 51.1429 4.91586C51.1921 4.96225 51.2411 5.00614 51.2909 5.05197C54.399 8.02145 54.4817 13.1324 50.7767 16.369Z" fill="#5F2DED"/>
<path d="M27.7755 25.1878C24.4155 25.1878 23.6633 28.3755 22.8309 30.9632C22.006 33.5328 19.7077 40.7635 19.7077 40.7635L15.8062 52.9999H0L6.44718 32.7808C7.72031 28.7871 11.4344 25.1875 15.9755 25.1875C19.1994 25.1875 21.0745 25.1875 21.0745 25.1875L27.7755 25.1878Z" fill="#5F2DED"/>
<path d="M19.0119 39.8257C21.946 39.8257 22.6028 41.3259 23.3297 42.5438C24.0499 43.7531 26.0568 47.156 26.0568 47.156L29.4636 52.9148H43.2656L36.5959 41.1345C35.4842 39.255 33.2811 39.8256 29.3157 39.8256C26.5006 39.8256 24.8633 39.8256 24.8633 39.8256L19.0119 39.8257Z" fill="#5F2DED"/>
<path d="M11.9688 15.5751H0L4.93176 0H16.9003L11.9688 15.5751Z" fill="#FFB000"/>
<path d="M58.0003 20.3825C58.0003 31.621 49.1918 40.7647 38.365 40.7647H19.707C19.707 40.7647 22.0051 33.5341 22.8302 30.9646C23.6626 28.3768 24.4148 25.1891 27.7749 25.1891H34.2035V31.0302L46.2383 20.3825C46.2383 20.3825 49.635 17.3652 50.7743 16.3695C54.4792 13.1329 54.3966 8.02193 51.2885 5.05273C55.4005 8.7882 58.0003 14.2767 58.0003 20.3825Z" fill="#5F2DED"/>
</svg>
